<?xml version="1.0" encoding="UTF-8" standalone="no"?>
<svg
   width="803.18201pt"
   height="260pt"
   viewBox="0 0 803.18201 260"
   version="1.1"
   id="svg176"
   sodipodi:docname="CanMV_logo_800x260.svg"
   inkscape:version="1.2.1 (9c6d41e410, 2022-07-14)"
   xmlns:inkscape="http://www.inkscape.org/namespaces/inkscape"
   xmlns:sodipodi="http://sodipodi.sourceforge.net/DTD/sodipodi-0.dtd"
   xmlns="http://www.w3.org/2000/svg"
   xmlns:svg="http://www.w3.org/2000/svg">
  <defs
     id="defs180">
    <clipPath
       clipPathUnits="userSpaceOnUse"
       id="clipPath762">
      <rect
         style="fill:#000000;stroke-width:0.685463"
         id="rect764"
         width="232.1256"
         height="278.95361"
         x="124.41362"
         y="183.72762" />
    </clipPath>
  </defs>
  <sodipodi:namedview
     id="namedview178"
     pagecolor="#ffffff"
     bordercolor="#000000"
     borderopacity="0.25"
     inkscape:showpageshadow="2"
     inkscape:pageopacity="0.0"
     inkscape:pagecheckerboard="0"
     inkscape:deskcolor="#d1d1d1"
     inkscape:document-units="pt"
     showgrid="false"
     inkscape:zoom="0.70710678"
     inkscape:cx="417.90011"
     inkscape:cy="347.18943"
     inkscape:window-width="1920"
     inkscape:window-height="1001"
     inkscape:window-x="-9"
     inkscape:window-y="-9"
     inkscape:window-maximized="1"
     inkscape:current-layer="svg176" />
  <g
     id="g682"
     transform="translate(-117.48543,-174.86008)"
     clip-path="url(#clipPath762)">
    <path
       fill="#005189"
       opacity="1"
       d="m 234.73,190.66 c 3.48,-1.99 6.89,2.04 6.79,5.38 0.09,8.64 -0.3,17.3 -0.36,25.95 -0.19,2.11 0.37,5.12 -2.12,6.07 -17.41,10 -34.78,20.07 -52.21,30.04 -1.68,1.22 -3.53,-0.18 -5.07,-0.91 -7.36,-4.28 -14.79,-8.46 -22.01,-12.97 -2.08,-1.14 -3.26,-3.23 -4.18,-5.32 0.75,-1.86 1.61,-3.84 3.56,-4.71 25.2,-14.51 50.39,-29.05 75.6,-43.53 z"
       id="path648" />
    <path
       fill="#005189"
       opacity="1"
       d="m 259.49,190.56 c 2.27,-1.25 4.42,0.58 6.34,1.62 24.31,14.09 48.69,28.04 73.01,42.11 1.75,0.93 3.24,2.7 3.03,4.8 -0.27,2.77 -2.76,4.52 -4.92,5.88 -7.09,4.24 -14.23,8.42 -21.42,12.51 -1.31,0.57 -2.96,1.74 -4.36,0.71 -17.43,-9.95 -34.78,-20.05 -52.21,-30.02 -1.21,-0.57 -2.25,-1.7 -2.15,-3.12 -0.28,-9 -0.37,-18.01 -0.54,-27.01 -0.11,-2.76 0.45,-6.16 3.22,-7.48 z"
       id="path650" />
    <path
       fill="#005189"
       opacity="1"
       d="m 458.54,216.55 c 5.76,0.03 11.52,0.04 17.29,0 0,1.43 0,2.87 0.01,4.31 16.3,-0.03 32.59,0 48.89,-0.02 0,3.83 0,7.66 0,11.49 -16.3,-0.07 -32.6,0 -48.89,-0.04 -0.01,1.15 -0.02,2.31 -0.01,3.46 15.42,0 30.83,-0.02 46.25,0.01 0.01,3.47 0.07,6.94 -0.15,10.41 -35.89,-0.07 -71.77,-0.02 -107.65,-0.03 0,-3.47 -0.01,-6.93 -0.02,-10.4 14.76,0.07 29.52,-0.12 44.27,0.1 0,-1.21 -0.01,-2.43 -0.01,-3.63 -15.66,0.23 -31.33,-0.01 -47,0.12 -0.01,-3.83 -0.01,-7.66 0,-11.49 15.69,0.05 31.37,-0.07 47.05,0.07 -0.01,-1.46 -0.02,-2.91 -0.03,-4.36 z"
       id="path652" />
    <path
       fill="#005189"
       opacity="1"
       d="m 568.8,216.57 c 4.85,0.01 9.7,0.01 14.55,-0.02 -0.02,7.34 -0.06,14.68 0.01,22.02 3.38,-0.07 6.76,-0.09 10.14,-0.07 -0.08,4.81 -0.01,9.62 -0.08,14.42 -3.37,-0.1 -6.73,-0.12 -10.09,-0.1 -0.01,2.32 -0.01,4.65 -0.01,6.99 4.37,3.06 8.38,6.59 12.28,10.24 -0.07,-7.97 -0.09,-15.93 -0.01,-23.9 8.74,0.18 17.47,0.02 26.21,0.1 0,-2.81 0,-5.62 0,-8.43 -9.32,0.03 -18.64,-0.01 -27.96,0.03 -0.01,-4.59 -0.01,-9.17 0,-13.75 9.31,0.04 18.63,0 27.94,0.03 0.02,-2.53 0.02,-5.05 0.04,-7.58 5.27,0.04 10.55,0.03 15.84,0 -0.02,2.53 -0.02,5.05 0,7.58 9.75,-0.04 19.5,0.04 29.26,-0.05 0.05,4.6 0.04,9.19 0,13.79 -9.76,-0.08 -19.52,-0.01 -29.27,-0.04 -0.01,2.8 -0.01,5.61 -0.01,8.42 8.92,-0.1 17.85,0.12 26.78,-0.13 0.13,22.3 -0.01,44.61 0.06,66.92 0.07,4.54 -0.9,9.82 -5.01,12.48 -5.18,3.28 -11.61,1.69 -17.38,2.15 -0.71,-4.7 -1.28,-9.42 -1.9,-14.13 3.35,0.2 7.55,1.71 9.98,-1.48 -0.08,-17.59 0.01,-35.19 -0.03,-52.78 -13.33,0.01 -26.65,0.04 -39.97,-0.01 -0.06,23 0.01,46 -0.01,69 -4.87,0.01 -9.74,-0.01 -14.6,0.02 0.01,-17.37 -0.08,-34.75 0.05,-52.12 -2.3,2.55 -3.95,5.58 -5.95,8.36 -2.01,-2.79 -3.97,-5.64 -6.31,-8.17 -0.04,17.31 -0.03,34.62 -0.01,51.93 -4.84,-0.03 -9.69,-0.02 -14.53,-0.01 -0.2,-15.08 0.45,-30.19 -0.32,-45.24 -1.66,7.66 -5.72,14.52 -10.35,20.74 -1.71,-6.3 -3.73,-12.52 -5.68,-18.75 7.77,-9.21 13.44,-20.3 15.57,-32.21 -4.8,0.01 -9.59,-0.03 -14.37,0.07 -0.04,-4.8 -0.01,-9.61 -0.03,-14.42 5.06,0.06 10.13,0.02 15.2,0.06 -0.03,-7.32 0,-14.64 -0.03,-21.96 z"
       id="path654" />
    <path
       fill="#005189"
       opacity="1"
       d="m 417.11,249.92 c 34.2,0.05 68.41,0.01 102.61,0.01 0.08,8.23 0.04,16.46 0.02,24.68 -6.49,-0.04 -12.98,-0.13 -19.47,0.03 -0.93,1.68 -2,3.28 -3.14,4.83 9.19,-0.12 18.37,0.04 27.56,-0.11 0.06,3.76 0.06,7.53 0,11.3 -25.81,-0.09 -51.63,0.14 -77.44,0 -0.22,0.99 -0.67,2.98 -0.9,3.97 8.4,-0.06 16.81,0.04 25.21,-0.07 -0.19,8.04 -0.55,16.15 -2.24,24.04 -0.53,2.87 -2.12,5.72 -4.97,6.82 -5.89,2.45 -12.45,1.95 -18.68,1.76 -0.84,-4.11 -1.69,-8.21 -2.48,-12.33 3.24,0.33 6.51,0.88 9.77,0.55 2.9,-2.41 2.77,-6.54 3.39,-9.92 -4.29,-0.01 -8.57,0.03 -12.85,-0.07 -1.38,6.3 -4.88,12.13 -10.18,15.88 -4.57,3.54 -10.03,5.58 -15.5,7.25 -2.67,-4.35 -5.12,-8.83 -7.88,-13.12 6.82,-1.56 14.39,-3.67 18.42,-9.9 -4.7,-0.09 -9.4,-0.03 -14.09,-0.02 0.01,-3.71 -0.08,-7.42 0.11,-11.12 5.79,0.27 11.58,0.02 17.37,0.19 0.27,-1.34 0.53,-2.68 0.79,-4.01 -7,0.09 -14,-0.06 -20.99,0.11 -0.05,-3.77 -0.05,-7.54 -0.02,-11.31 9.07,0.11 18.15,0.08 27.22,0.03 -0.91,-1.62 -1.8,-3.22 -2.71,-4.83 -6.32,0.02 -12.64,-0.04 -18.96,0.06 -0.1,-8.23 -0.19,-16.47 0.03,-24.7 m 16.58,10.27 c -0.03,1.46 -0.05,2.93 -0.05,4.4 23.32,-0.04 46.65,-0.11 69.97,0.04 -0.01,-1.49 -0.01,-2.98 -0.01,-4.47 -23.31,0.17 -46.61,0.12 -69.91,0.03 m 19.03,14.41 c 0.73,1.65 1.46,3.29 2.18,4.95 8.49,-0.03 16.97,-0.07 25.46,0.02 1.11,-1.62 2.19,-3.25 3.26,-4.9 -10.3,-0.05 -20.6,0.08 -30.9,-0.07 z"
       id="path656" />
    <path
       fill="#005189"
       opacity="1"
       d="m 345.48,255.77 c 4.73,-2.01 12.07,1.42 11.09,7.16 -0.1,28.38 0.02,56.76 -0.06,85.14 -0.06,3.48 -2.95,6.65 -6.42,7.02 -2.8,0.23 -5.47,-0.95 -7.89,-2.22 -7.12,-3.86 -14.19,-7.82 -21.25,-11.79 -2.21,-1.2 -4.55,-3.21 -4.3,-5.98 -0.01,-20.05 -0.02,-40.09 0,-60.13 -0.09,-2.84 2.89,-4.11 4.89,-5.43 8.02,-4.52 15.74,-9.61 23.94,-13.77 m 0.7,5.37 c -8.17,4.84 -16.5,9.42 -24.49,14.54 0.16,19.84 0.16,39.69 0,59.53 4.39,3.11 9.28,5.4 13.92,8.12 4.75,2.38 9.13,5.71 14.39,6.91 0.92,-1.25 1.64,-2.63 1.39,-4.22 -0.1,-28.32 0.1,-56.63 -0.1,-84.94 -1.66,-0.62 -3.56,-1.09 -5.11,0.06 z"
       id="path658" />
    <path
       fill="#005189"
       opacity="1"
       d="m 146.41,258.49 c 2.33,-1.44 5.19,-0.61 7.37,0.69 7.37,4.3 14.74,8.63 22.1,12.96 1.37,0.89 3.36,1.85 2.92,3.84 -0.04,19.69 0.03,39.38 -0.03,59.07 0.23,2.17 -2.05,3.18 -3.57,4.16 -6.86,3.84 -13.71,7.69 -20.62,11.43 -2.27,1.18 -4.88,2.48 -7.48,1.68 -2.22,-0.66 -3.26,-3.11 -3.06,-5.27 0.01,-27.02 0.03,-54.05 -0.01,-81.08 0.11,-2.65 -0.81,-6.32 2.38,-7.48 z"
       id="path660" />
    <path
       fill="#005189"
       opacity="1"
       d="m 612.75,264.59 c 3.99,-1.21 7.89,-2.71 11.94,-3.75 2.06,4.85 3.6,9.88 5.02,14.95 0.31,0.04 0.94,0.11 1.25,0.15 2.53,-4.71 4.02,-9.9 5.11,-15.1 4.12,0.96 8.17,2.21 12.27,3.25 -1.32,4.05 -3.08,7.93 -4.94,11.75 1.51,-0.06 3.02,-0.13 4.54,-0.17 0.02,3.83 0.02,7.66 0.01,11.49 -3.75,0.02 -7.49,0.01 -11.23,-0.07 -0.03,2.45 -0.04,4.89 -0.04,7.34 3.65,-0.01 7.3,-0.02 10.96,-0.08 0.05,3.83 0.05,7.66 0,11.5 -3.65,-0.09 -7.3,-0.1 -10.94,-0.09 -0.01,6.28 0.03,12.57 -0.03,18.86 -4.49,-0.08 -8.97,-0.07 -13.46,-0.03 0.03,-6.28 0.01,-12.55 0.02,-18.82 -3.55,-0.03 -7.09,-0.02 -10.63,0.11 -0.08,-3.85 -0.08,-7.7 -0.02,-11.55 3.55,0.09 7.1,0.1 10.66,0.09 -0.01,-2.43 -0.01,-4.86 -0.02,-7.3 -3.66,0.04 -7.32,0.05 -10.97,0.05 0,-3.84 0,-7.67 -0.01,-11.5 1.82,0.05 3.63,0.09 5.46,0.14 -1.1,-3.97 -2.9,-7.68 -4.95,-11.22 z"
       id="path662" />
    <path
       fill="#005189"
       opacity="1"
       d="m 474.8,294.6 c 15.55,-0.01 31.11,0.05 46.67,-0.03 0.01,11.24 0.01,22.48 0,33.72 -5.03,-0.02 -10.05,-0.02 -15.07,0 -0.02,-1.51 -0.01,-3.01 -0.01,-4.52 -5.6,0.03 -11.19,0.03 -16.79,0 0,1.51 0,3.01 0.01,4.52 -4.94,-0.02 -9.87,-0.02 -14.8,-0.01 -0.02,-11.22 -0.01,-22.45 -0.01,-33.68 m 14.82,10.28 c -0.03,2.89 -0.03,5.77 -0.01,8.66 5.59,-0.08 11.19,-0.07 16.78,-0.01 0.01,-2.88 0.01,-5.77 -0.01,-8.65 -5.59,0.02 -11.18,0.01 -16.76,0 z"
       id="path664" />
    <path
       fill="#005189"
       opacity="1"
       d="m 419.35,350.27 c 8.01,-5.48 18.56,-4.87 27.53,-2.45 -0.08,3.83 -0.07,7.65 -0.03,11.48 -5.02,-2.44 -10.86,-4 -16.39,-2.53 -10.65,3.34 -10.82,21.38 -0.34,25.05 5.68,1.86 11.69,-0.06 17.02,-2.16 -0.04,3.52 -0.04,7.04 -0.01,10.56 -8.12,3.13 -17.63,3.79 -25.73,0.32 -7.19,-3.09 -11.2,-10.94 -11.27,-18.52 -0.7,-8.14 2.26,-17.03 9.22,-21.75 z"
       id="path666" />
    <path
       fill="#005189"
       opacity="1"
       d="m 454.21,352.34 c 6.15,-6.97 16.35,-7.14 24.79,-5.35 6.14,1.25 11.07,6.7 11.31,13.04 0.36,10.78 0.02,21.58 0.17,32.38 -3.77,-0.04 -7.54,-0.04 -11.3,-0.01 0.03,-0.98 0.08,-2.94 0.1,-3.93 -5.44,5.64 -14.98,5.63 -21.37,1.7 -7.05,-5.05 -7.52,-17.5 0.02,-22.33 6.27,-4 14.04,-2.27 21.04,-2.65 -0.11,-2.96 0.06,-6.77 -3.07,-8.3 -4.66,-2.05 -10.9,-1.49 -14.2,2.73 -2.55,-2.38 -5.03,-4.82 -7.49,-7.28 m 12.27,21.38 c -3.85,1.41 -3.89,7.48 -0.13,9.02 3.48,1.21 8.07,1.21 10.88,-1.52 2.12,-2.14 1.47,-5.41 1.7,-8.14 -4.14,0.23 -8.43,-0.53 -12.45,0.64 z"
       id="path668" />
    <path
       fill="#005189"
       opacity="1"
       d="m 509.5,350.67 c 6.06,-6.22 17.65,-6.27 23.19,0.65 2.76,3.19 3.61,7.54 3.59,11.66 -0.01,9.8 -0.01,19.61 0,29.42 -3.85,-0.03 -7.7,-0.03 -11.54,0 -0.08,-9.71 0.13,-19.44 -0.09,-29.15 -0.13,-3.89 -3.72,-7.18 -7.63,-6.79 -4.08,-0.17 -7.34,3.59 -7.3,7.53 -0.2,9.47 0.01,18.95 -0.09,28.43 -3.82,-0.05 -7.63,-0.05 -11.45,-0.03 0,-15.27 -0.02,-30.55 0.01,-45.82 3.75,0.02 7.5,0.03 11.25,-0.02 0.02,1.37 0.03,2.74 0.06,4.12 z"
       id="path670" />
    <path
       fill="#005189"
       opacity="1"
       d="m 542.52,352.49 c 2.96,-3.28 6.97,-5.7 11.44,-6.09 6.49,-0.61 13.72,-0.6 19.27,3.32 3.84,2.76 5.57,7.63 5.44,12.24 -0.03,10.16 0.02,20.31 -0.03,30.46 -3.71,-0.05 -7.43,-0.06 -11.13,-0.01 -0.05,-1.31 -0.08,-2.61 -0.1,-3.9 -4.5,5.07 -12.15,5.07 -18.17,3.25 -7.68,-2.57 -10.52,-12.66 -6.99,-19.51 2,-4 6.36,-6.31 10.68,-6.81 4.77,-0.48 9.57,-0.18 14.35,-0.24 -0.02,-2.98 0,-6.88 -3.14,-8.37 -4.74,-1.98 -10.88,-1.36 -14.25,2.84 -2.42,-2.44 -4.86,-4.85 -7.37,-7.18 m 12.21,21.24 c -4.01,1.52 -3.71,7.93 0.34,9.2 3.16,0.84 6.98,0.93 9.76,-1.06 2.82,-1.97 2.33,-5.79 2.39,-8.79 -4.15,0.25 -8.46,-0.56 -12.49,0.65 z"
       id="path672" />
    <path
       fill="#005189"
       opacity="1"
       d="m 585.01,352.61 c 3.09,-3.91 7.92,-6.17 12.86,-6.36 6.18,-0.37 13.06,-0.22 18.16,3.76 3.66,2.8 5.16,7.55 5.11,12.01 0,10.12 -0.01,20.23 0,30.35 -3.77,0.01 -7.53,0.01 -11.3,0.01 0.03,-0.94 0.08,-2.8 0.1,-3.74 -5.53,5.39 -14.83,5.45 -21.2,1.59 -5.07,-3.51 -6.57,-10.64 -4.79,-16.31 1.53,-4.81 6.32,-7.84 11.16,-8.45 4.82,-0.53 9.69,-0.2 14.53,-0.27 -0.01,-2.85 0.19,-6.51 -2.69,-8.13 -4.76,-2.4 -11.1,-1.58 -14.7,2.51 -2.33,-2.41 -4.71,-4.78 -7.24,-6.97 m 12.45,21.01 c -4.05,1.25 -4.24,7.66 -0.28,9.17 3.34,1.09 7.58,1.12 10.43,-1.22 2.54,-2.06 1.88,-5.64 2,-8.51 -4.04,0.23 -8.19,-0.43 -12.15,0.56 z"
       id="path674" />
    <path
       fill="#005189"
       opacity="1"
       d="m 640.11,350.57 c 5.56,-5.16 14.75,-6.13 20.95,-1.57 3.97,2.98 5.97,8 5.87,12.9 0.05,10.16 0.01,20.32 0.02,30.49 -3.82,-0.02 -7.63,-0.02 -11.44,0.02 -0.12,-9.79 0.17,-19.6 -0.13,-29.39 -0.21,-4.95 -5.86,-7.9 -10.24,-6.09 -3.3,1.11 -4.86,4.73 -4.72,8 -0.07,9.16 0.03,18.32 -0.03,27.48 -3.85,-0.04 -7.69,-0.04 -11.53,-0.03 0,-15.26 0,-30.53 0,-45.79 3.8,-0.01 7.6,-0.01 11.41,-0.02 -0.04,1 -0.12,3 -0.16,4 z"
       id="path676" />
    <path
       fill="#005189"
       opacity="1"
       d="m 309.39,349.33 c 2.12,-1.58 4.9,-0.99 7.02,0.24 6.82,3.84 13.55,7.83 20.29,11.8 2.83,1.7 5.94,3.54 7.23,6.77 1.57,3.48 -0.58,7.6 -3.83,9.22 -25.34,14.58 -50.66,29.21 -76.01,43.78 -4.78,2.55 -10.1,-2.17 -10.25,-7.06 -0.35,-9.38 0.37,-18.76 0.41,-28.14 0.05,-2.24 0.12,-5.12 2.47,-6.23 17.53,-10.18 35.12,-20.24 52.67,-30.38 m -49.93,34.81 c -0.26,8.96 -0.25,17.93 -0.63,26.9 -0.22,2.22 0.49,4.38 2.08,5.96 25.15,-14.51 50.3,-29.02 75.48,-43.48 1.21,-0.7 2.24,-1.67 3.27,-2.6 -0.96,-1.52 -2.06,-2.98 -3.65,-3.87 -7.65,-4.69 -15.49,-9.07 -23.22,-13.63 -17.81,10.18 -35.59,20.42 -53.33,30.72 z"
       id="path678" />
    <path
       fill="#005189"
       opacity="1"
       d="m 181.44,352.44 c 1.8,-1.03 4.08,-2.4 6,-0.78 17.73,10.27 35.54,20.41 53.25,30.73 0.93,10.14 0.62,20.37 0.86,30.54 0.34,3.62 -3.48,8.2 -7.15,5.68 -25.16,-14.49 -50.31,-28.98 -75.47,-43.47 -1.81,-0.81 -2.53,-2.7 -3.33,-4.35 0.74,-2.38 2.21,-4.46 4.39,-5.72 7.05,-4.38 14.28,-8.45 21.45,-12.63 z"
       id="path680" />
  </g>
  <text
     xml:space="preserve"
     style="font-style:normal;font-variant:normal;font-weight:900;font-stretch:normal;font-size:175.912px;font-family:'Source Han Sans CN';-inkscape-font-specification:'Source Han Sans CN Heavy';letter-spacing:-18.3242px;fill:#005189;fill-opacity:1;stroke-width:0.916209"
     x="245.11044"
     y="194.63933"
     id="text6122"><tspan
       sodipodi:role="line"
       id="tspan6120"
       style="font-size:175.912px;stroke-width:0.916209"
       x="245.11044"
       y="194.63933"
       dx="0">CanMV</tspan></text>
</svg>
